<?xml version="1.0" encoding="utf-8"?>
<!-- Generator: Adobe Illustrator 24.0.0, SVG Export Plug-In . SVG Version: 6.00 Build 0)  -->
<svg version="1.1" id="Facebook" xmlns="http://www.w3.org/2000/svg" xmlns:xlink="http://www.w3.org/1999/xlink" x="0px" y="0px"
	 viewBox="0 0 71.8 71.8" style="enable-background:new 0 0 71.8 71.8;" xml:space="preserve">
<style type="text/css">
	.st0{fill:#393B44;}
	.st1{fill:#FFFFFF;}
</style>
<rect id="facebook-back" x="-28.1" y="-28.2" class="st0" width="128" height="128"/>
<path id="facebook-facebook" class="st1" d="M67.8,0H4C1.8,0,0,1.8,0,4v63.8c0,2.2,1.8,4,4,4h34.3V43.9H29V33.1h9.3v-8
	c0-9.3,5.7-14.3,14-14.3c4,0,7.4,0.3,8.3,0.4v9.7h-5.7c-4.5,0-5.4,2.1-5.4,5.3v6.9h10.7l-1.4,10.8h-9.3v27.8h18.3c2.2,0,4-1.8,4-4
	V3.9C71.7,1.7,70,0,67.8,0z"/>
</svg>
