<?xml version="1.0" encoding="utf-8"?>
<!-- Generator: Adobe Illustrator 24.0.0, SVG Export Plug-In . SVG Version: 6.00 Build 0)  -->
<svg version="1.1" id="Instagram" xmlns="http://www.w3.org/2000/svg" xmlns:xlink="http://www.w3.org/1999/xlink" x="0px" y="0px"
	 viewBox="0 0 71.7 71.7" style="enable-background:new 0 0 71.7 71.7;" xml:space="preserve">
<style type="text/css">
	.st0{fill:#393B44;}
	.st1{fill-rule:evenodd;clip-rule:evenodd;fill:#FFFFFF;}
</style>
<rect id="instagram-back" x="-28.1" y="-28.1" class="st0" width="128" height="128"/>
<path id="instagram-instagram" class="st1" d="M63.5,30.4h-6.2c0.5,1.8,0.7,3.6,0.7,5.5C58,48.1,48.1,58,35.9,58
	s-22.1-9.9-22.1-22.1c0-1.9,0.3-3.8,0.7-5.5H8.3v30.3c0,1.5,1.2,2.8,2.8,2.8h49.6c1.5,0,2.8-1.2,2.8-2.8
	C63.5,60.7,63.5,30.4,63.5,30.4z M63.5,11.1c0-1.5-1.2-2.8-2.8-2.8h-8.3c-1.5,0-2.8,1.2-2.8,2.8v8.3c0,1.5,1.2,2.8,2.8,2.8h8.3
	c1.5,0,2.8-1.2,2.8-2.8V11.1z M35.9,22.1c-7.6,0-13.8,6.2-13.8,13.8s6.2,13.8,13.8,13.8s13.8-6.2,13.8-13.8
	C49.7,28.3,43.5,22.1,35.9,22.1 M63.5,71.7H8.3C3.7,71.7,0,68,0,63.4V8.3C0,3.7,3.7,0,8.3,0h55.1c4.6,0,8.3,3.7,8.3,8.3v55.1
	C71.7,68,68,71.7,63.5,71.7"/>
</svg>
