<?xml version="1.0" encoding="utf-8"?>
<!-- Generator: Adobe Illustrator 24.0.0, SVG Export Plug-In . SVG Version: 6.00 Build 0)  -->
<svg version="1.1" id="Layer_1" xmlns="http://www.w3.org/2000/svg" xmlns:xlink="http://www.w3.org/1999/xlink" x="0px" y="0px"
	 viewBox="0 0 490.5 64.7" style="enable-background:new 0 0 490.5 64.7;" xml:space="preserve">
<style type="text/css">
	.st0{fill:#393B44;}
	.st1{font-family:'Monoton-Regular';}
	.st2{font-size:45.1853px;}
	.st3{fill:none;stroke:#393B44;stroke-width:8.0275;stroke-miterlimit:10;}
	.st4{fill:none;stroke:#393B44;stroke-width:3.4674;stroke-linecap:round;stroke-linejoin:round;stroke-miterlimit:10;}
</style>
<text transform="matrix(1 0 0 1 63.9574 55.0487)" class="st0 st1 st2">Media Player</text>
<ellipse class="st0" cx="449.4" cy="45" rx="10.5" ry="13.4"/>
<ellipse class="st0" cx="480" cy="45" rx="10.5" ry="13.4"/>
<path class="st3" d="M445,44c0-13.6,9-24.6,20-24.6c11.1,0,20,11,20,24.6"/>
<path class="st0" d="M48.8,16.7H8.9c-4.9,0-8.9,4-8.9,8.9v21.5C0,52,4,56,8.9,56h39.9c4.9,0,8.9-4,8.9-8.9V25.6
	C57.6,20.7,53.7,16.7,48.8,16.7z M51.9,44.9c0,3.9-3.2,7.1-7.1,7.1H12.9c-3.9,0-7.1-3.2-7.1-7.1V27.7c0-3.9,3.2-7.1,7.1-7.1h31.9
	c3.9,0,7.1,3.2,7.1,7.1V44.9z"/>
<polyline class="st4" points="23.2,8.5 28.9,18.2 34.5,8.5 "/>
</svg>
