<?xml version="1.0" encoding="utf-8"?>
<!-- Generator: Adobe Illustrator 24.0.0, SVG Export Plug-In . SVG Version: 6.00 Build 0)  -->
<svg version="1.1" id="Twitter" xmlns="http://www.w3.org/2000/svg" xmlns:xlink="http://www.w3.org/1999/xlink" x="0px" y="0px"
	 viewBox="0 0 71.7 58.2" style="enable-background:new 0 0 71.7 58.2;" xml:space="preserve">
<style type="text/css">
	.st0{fill:#393B44;}
	.st1{fill:#FFFFFF;}
</style>
<rect id="twitter-back" x="-28.1" y="-35" class="st0" width="128" height="128"/>
<path id="twitter-twitter" class="st1" d="M71.7,6.8c-2.6,1.2-5.5,2-8.4,2.3c3-1.8,5.4-4.7,6.5-8.1c-2.8,1.7-6,2.9-9.3,3.6
	C57.8,1.7,54,0,49.8,0c-8.1,0-14.7,6.6-14.7,14.7c0,1.2,0.1,2.3,0.4,3.4C23.3,17.5,12.4,11.6,5.2,2.7c-1.3,2.2-2,4.7-2,7.4
	c0,5.1,2.6,9.6,6.5,12.2C7.3,22.2,5,21.6,3,20.5c0,0.1,0,0.1,0,0.2c0,7.1,5.1,13.1,11.8,14.4c-1.2,0.3-2.5,0.5-3.9,0.5
	c-0.9,0-1.9-0.1-2.8-0.3c1.9,5.8,7.3,10.1,13.7,10.2c-5,3.9-11.4,6.3-18.3,6.3c-1.2,0-2.4-0.1-3.5-0.2c6.5,4.2,14.2,6.6,22.5,6.6
	c27,0,41.8-22.4,41.8-41.8c0-0.6,0-1.3,0-1.9C67.3,12.3,69.8,9.7,71.7,6.8z"/>
</svg>
